<svg xmlns="http://www.w3.org/2000/svg" viewBox="0 0 48 48"><defs><style>.cls-1{fill:#42a5f5;}.cls-2{fill:#424242;}</style></defs><title>Website Ads</title><g id="Website_Ads" data-name="Website Ads"><path class="cls-1" d="M38,10V4a4,4,0,0,0-4-4H4A4,4,0,0,0,0,4V44a4,4,0,0,0,4,4H34a4,4,0,0,0,4-4V32.24l-2,2V44a2,2,0,0,1-2,2H4a2,2,0,0,1-2-2V8H36v2ZM5,5A1,1,0,0,1,5,3,1,1,0,0,1,5,5ZM9,5A1,1,0,0,1,9,3,1,1,0,0,1,9,5Zm4,0a1,1,0,0,1,0-2A1,1,0,0,1,13,5Z"/><path class="cls-1" d="M25.89,16.55a1,1,0,0,0-1.78,0l-2,4C22,20.84,22,20.69,22,25a1,1,0,0,0,2,0V23h2v2a1,1,0,0,0,2,0V21C28,20.66,28.05,20.87,25.89,16.55ZM25,19.24,25.88,21H24.12Z"/><path class="cls-1" d="M33,16H31a1,1,0,0,0-1,1v8a1,1,0,0,0,1,1h2a3,3,0,0,0,3-3V19A3,3,0,0,0,33,16Zm1,7a1,1,0,0,1-1,1H32V18h1a1,1,0,0,1,1,1Z"/><path class="cls-1" d="M41,20a1,1,0,0,1,0-2h2a1,1,0,0,0,0-2H41a3,3,0,0,0,0,6,1,1,0,0,1,0,2H39a1,1,0,0,0,0,2h2a3,3,0,0,0,0-6Z"/><path class="cls-2" d="M33,34c-.56,0-.42,0-4.41-4H21a3,3,0,0,1-3-3V15a3,3,0,0,1,3-3H45a3,3,0,0,1,3,3V27a3,3,0,0,1-3,3H37.41C33.37,34,33.56,34,33,34ZM21,14a1,1,0,0,0-1,1V27a1,1,0,0,0,1,1h8c.57,0,.43,0,4,3.59C36.6,28,36.44,28,37,28h8a1,1,0,0,0,1-1V15a1,1,0,0,0-1-1Z"/><polygon class="cls-1" points="9 40 9 34 15 37 9 40"/><path class="cls-2" d="M17,44H7a3,3,0,0,1-3-3V33a3,3,0,0,1,3-3H17a3,3,0,0,1,3,3v8A3,3,0,0,1,17,44ZM7,32a1,1,0,0,0-1,1v8a1,1,0,0,0,1,1H17a1,1,0,0,0,1-1V33a1,1,0,0,0-1-1Z"/><path class="cls-2" d="M15,26H5a1,1,0,0,1,0-2H15A1,1,0,0,1,15,26Z"/><path class="cls-2" d="M15,22H5a1,1,0,0,1,0-2H15A1,1,0,0,1,15,22Z"/><path class="cls-2" d="M15,18H5a1,1,0,0,1,0-2H15A1,1,0,0,1,15,18Z"/><path class="cls-2" d="M33,40H23a1,1,0,0,1,0-2H33A1,1,0,0,1,33,40Z"/><path class="cls-2" d="M29,36H23a1,1,0,0,1,0-2h6A1,1,0,0,1,29,36Z"/><path class="cls-2" d="M33,44H23a1,1,0,0,1,0-2H33A1,1,0,0,1,33,44Z"/></g></svg>