<svg id="artwork" xmlns="http://www.w3.org/2000/svg" viewBox="0 0 512 512"><title>Customer_relationship</title><g id="Customer_relationship"><rect x="32.48" y="188.58" width="454.89" height="282.83" style="fill:#def1f9"/><rect x="32.48" y="188.58" width="454.89" height="32.09" style="fill:#3e4757"/><polygon points="190.5 329.23 190.5 362.09 131.13 362.09 131.13 455.37 161.63 433.81 245.61 433.81 245.61 397.69 270.66 397.69 299.77 418.27 299.77 329.23 190.5 329.23" style="fill:#83afc6"/><polygon points="190.5 303.85 190.5 336.71 131.13 336.71 131.13 429.99 161.63 408.43 245.61 408.43 245.61 372.31 270.66 372.31 299.77 392.89 299.77 303.85 190.5 303.85" style="fill:#3dc9c9"/><rect x="340" y="311.35" width="111.46" height="12" style="fill:#83afc6"/><rect x="340" y="345.92" width="111.46" height="12" style="fill:#83afc6"/><rect x="340" y="380.5" width="111.46" height="12" style="fill:#83afc6"/><rect x="340" y="415.08" width="111.46" height="12" style="fill:#83afc6"/><path d="M449.76,265.11h-13v-12h13Zm-25,0h-13v-12h13Zm-25,0h-13v-12h13Z" style="fill:#9dc0d1"/><path d="M449.76,255.24h-13v-12h13Zm-25,0h-13v-12h13Zm-25,0h-13v-12h13Z" style="fill:#fff"/><polygon points="73.2 76.23 73.2 471.41 98.94 471.41 98.94 76.23 120.49 76.23 86.18 31.52 51.86 76.23 73.2 76.23" style="fill:#f47a53"/><path d="M355.29,149.42a95.63,95.63,0,0,1-1.76,18.35h0a95.6,95.6,0,1,1,1.76-18.36Z" style="fill:#ffaf9f"/><path d="M237.54,242.33v-63A24.54,24.54,0,0,0,213,154.82L200.25,166.1l-12.76-11.28A24.51,24.51,0,0,0,166,167.53a95.59,95.59,0,0,0,71.54,74.8Z" style="fill:#f47a53"/><path d="M281.85,242.37a95.56,95.56,0,0,0,71.68-74.59h0a24.54,24.54,0,0,0-21.64-13L319.14,166.1l-12.76-11.28a24.54,24.54,0,0,0-24.53,24.54Z" style="fill:#f47a53"/><path d="M307.25,191.37v40.95a95.63,95.63,0,0,1-92.93,1.11V191.37a30.57,30.57,0,0,1,30.57-30.57l15.89,14,15.89-14A30.58,30.58,0,0,1,307.25,191.37Z" style="fill:#def1f9"/><path d="M283.53,123.86a23,23,0,1,1-23-23A23,23,0,0,1,283.53,123.86Z" style="fill:#fff"/><path d="M211.85,129.12A11.88,11.88,0,1,1,200,117.24,11.87,11.87,0,0,1,211.85,129.12Z" style="fill:#fff"/><path d="M330.74,129.12a11.88,11.88,0,1,1-11.87-11.88A11.87,11.87,0,0,1,330.74,129.12Z" style="fill:#fff"/><path d="M369,149.42a111.2,111.2,0,0,1-.59,11.41l11.94,1.24a124.17,124.17,0,0,0,.65-12.68v-.22H369Z" style="fill:#f47a53"/><path d="M260,270.48a120.9,120.9,0,0,0,12.64-.66l-1.24-11.93a111.06,111.06,0,0,1-11.41.59Z" style="fill:#f47a53"/><path d="M188.63,51.58a123.29,123.29,0,0,0-9.83,8l8,8.9a111.18,111.18,0,0,1,8.85-7.2Z" style="fill:#f47a53"/><path d="M215.41,49.83l-4.9-10.95a119.66,119.66,0,0,0-11.27,5.78l6,10.38A109.12,109.12,0,0,1,215.41,49.83Z" style="fill:#f47a53"/><path d="M179,239.45l8-8.92a113.92,113.92,0,0,1-8.08-8.07l-8.91,8A124.17,124.17,0,0,0,179,239.45Z" style="fill:#f47a53"/><path d="M160.31,193.88a106.34,106.34,0,0,1-4.1-10.65L144.8,187a122.76,122.76,0,0,0,4.55,11.83Z" style="fill:#f47a53"/><path d="M370.55,198.66l-11-4.88a110.31,110.31,0,0,1-5.19,10.16l10.39,6A123.53,123.53,0,0,0,370.55,198.66Z" style="fill:#f47a53"/><path d="M139.53,162.2a119.71,119.71,0,0,0,2,12.51l11.73-2.49A112.41,112.41,0,0,1,151.47,161Z" style="fill:#f47a53"/><path d="M171.74,213.6a110.22,110.22,0,0,1-6.23-9.56l-10.39,6A124.44,124.44,0,0,0,162,220.67Z" style="fill:#f47a53"/><path d="M234.57,31a120.74,120.74,0,0,0-12.24,3.29l3.73,11.41a107.75,107.75,0,0,1,11-3Z" style="fill:#f47a53"/><path d="M178.78,76.56l-8.92-8a119.48,119.48,0,0,0-8,9.85l9.71,7A111.4,111.4,0,0,1,178.78,76.56Z" style="fill:#f47a53"/><path d="M150.87,149.42a111.52,111.52,0,0,1,.57-11.28l-11.93-1.23a121.3,121.3,0,0,0-.64,12.51v.13h12Z" style="fill:#f47a53"/><path d="M248.58,257.9a109.16,109.16,0,0,1-11.27-1.77l-2.48,11.75a125.35,125.35,0,0,0,12.52,2Z" style="fill:#f47a53"/><path d="M210.75,260.07a119.34,119.34,0,0,0,11.84,4.54l3.69-11.42a107.15,107.15,0,0,1-10.65-4.08Z" style="fill:#f47a53"/><path d="M156.14,115.84l-11.42-3.69a119.39,119.39,0,0,0-3.26,12.25l11.74,2.47A108,108,0,0,1,156.14,115.84Z" style="fill:#f47a53"/><path d="M165.39,95,155,89a119.9,119.9,0,0,0-5.75,11.3l11,4.87A109.19,109.19,0,0,1,165.39,95Z" style="fill:#f47a53"/><path d="M199.46,254.32l6-10.39a111.1,111.1,0,0,1-9.57-6.22l-7.06,9.71A123,123,0,0,0,199.46,254.32Z" style="fill:#f47a53"/><path d="M368.37,137.78l11.93-1.27a119.71,119.71,0,0,0-2-12.51l-11.74,2.51A109.24,109.24,0,0,1,368.37,137.78Z" style="fill:#f47a53"/><path d="M340.83,76.3l8.9-8a120.1,120.1,0,0,0-9-8.94l-8,8.93A111.71,111.71,0,0,1,340.83,76.3Z" style="fill:#f47a53"/><path d="M354.28,94.71l10.38-6a123.81,123.81,0,0,0-6.93-10.61L348,85.15A108.82,108.82,0,0,1,354.28,94.71Z" style="fill:#f47a53"/><path d="M363.6,115.5,375,111.77A121.72,121.72,0,0,0,370.44,100l-10.95,4.91A107.18,107.18,0,0,1,363.6,115.5Z" style="fill:#f47a53"/><path d="M341,222.38l8.91,8a123.32,123.32,0,0,0,8-9.84l-9.71-7.06A107,107,0,0,1,341,222.38Z" style="fill:#f47a53"/><path d="M378.36,174.58l-11.74-2.48a107.09,107.09,0,0,1-2.94,11l11.41,3.71A120.82,120.82,0,0,0,378.36,174.58Z" style="fill:#f47a53"/><path d="M285.15,267.85a122.64,122.64,0,0,0,12.24-3.28l-3.71-11.41a109.75,109.75,0,0,1-11,3Z" style="fill:#f47a53"/><path d="M248.34,41a111,111,0,0,1,11.4-.6l0-12a121,121,0,0,0-12.64.67Z" style="fill:#f47a53"/><path d="M330.91,51.35a122.88,122.88,0,0,0-10.63-6.89l-6,10.4a110.32,110.32,0,0,1,9.58,6.21Z" style="fill:#f47a53"/><path d="M309.22,260a120.88,120.88,0,0,0,11.28-5.76l-6-10.39a109.11,109.11,0,0,1-10.16,5.19Z" style="fill:#f47a53"/><path d="M284.89,30.94A122.9,122.9,0,0,0,272.37,29l-1.22,11.94a106.47,106.47,0,0,1,11.27,1.75Z" style="fill:#f47a53"/><path d="M309,38.72a120.16,120.16,0,0,0-11.84-4.52l-3.69,11.42a107.25,107.25,0,0,1,10.66,4.07Z" style="fill:#f47a53"/><path d="M331.11,247.35a123.32,123.32,0,0,0,9.84-8l-8-8.91a110.8,110.8,0,0,1-8.86,7.19Z" style="fill:#f47a53"/><path d="M260.78,94.84a29,29,0,1,0,29,29A29,29,0,0,0,260.78,94.84Zm0,46a17,17,0,1,1,17-17A17,17,0,0,1,260.78,140.87Z"/><path d="M200.25,111.24a17.88,17.88,0,1,0,17.88,17.88A17.9,17.9,0,0,0,200.25,111.24Zm0,23.76a5.88,5.88,0,1,1,5.88-5.88A5.89,5.89,0,0,1,200.25,135Z"/><path d="M301.26,129.12a17.88,17.88,0,1,0,17.88-17.88A17.9,17.9,0,0,0,301.26,129.12Zm23.76,0a5.88,5.88,0,1,1-5.88-5.88A5.89,5.89,0,0,1,325,129.12Z"/><path d="M259.92,47.92a101.51,101.51,0,1,0,101.51,101.5A101.61,101.61,0,0,0,259.92,47.92Zm-87.06,122.3a20.48,20.48,0,0,1,13.66-9l13.73,12.14L214,161.21a16.16,16.16,0,0,1,6.9,2.59,36.5,36.5,0,0,0-12.59,27.57v31.15A89.8,89.8,0,0,1,172.86,170.22Zm47.46,59.46V191.37a24.6,24.6,0,0,1,22.41-24.47l18,16,18.06-16a24.6,24.6,0,0,1,22.41,24.47V228.8a89.38,89.38,0,0,1-80.93.88Zm92.93-8.41v-29.9A36.52,36.52,0,0,0,300,163.23a16.29,16.29,0,0,1,6-2l13.76,12.17,13.71-12.13a21.06,21.06,0,0,1,13.52,9A89.71,89.71,0,0,1,313.25,221.27Zm36-65.85a30.7,30.7,0,0,0-17.85-6.34H329.1l-9.36,8.28-9.36-8.28H308.1a28.14,28.14,0,0,0-16.43,5.25,27.82,27.82,0,0,0-3,2.5,36.3,36.3,0,0,0-12-2H274.4l-13.62,12-13.61-12h-2.28a36.24,36.24,0,0,0-13.12,2.45,27.34,27.34,0,0,0-2.42-2.15,28,28,0,0,0-17.47-6h-2.27l-9.36,8.28-9.36-8.28h-2.27a31,31,0,0,0-18,6.32q-.19-3-.2-6a89.51,89.51,0,0,1,179,0Q349.43,152.45,349.23,155.42Z"/><polygon points="493.37 182.58 397.1 182.58 397.1 194.58 481.37 194.58 481.37 214.31 377.14 214.31 377.14 226.31 481.37 226.31 481.37 243.43 493.37 243.43 493.37 182.58"/><path d="M493.37,260.74h-12V465.41H104.94V226.31h35.81v-12H104.94V194.58h15.85v-12H104.94V82.24h27.72L86.18,21.66,39.69,82.24H67.2V182.58H26.48V477.41H493.37ZM67.2,194.58v19.73H38.48V194.58ZM38.48,465.41V226.31H67.2v239.1Zm40.72,0V70.24H64L86.18,41.38l22.15,28.86H92.94V465.41Z"/><rect x="340" y="299.61" width="111.46" height="12"/><rect x="340" y="334.19" width="111.46" height="12"/><rect x="340" y="368.77" width="111.46" height="12"/><rect x="340" y="403.34" width="111.46" height="12"/><path d="M124.28,441.57l38.4-27.14h88.08V378.27h17.36l36.25,25.62V299.61H186v31.1h-61.7Zm73.7-130h94.39v69.1l-20.44-14.44H250.76V330.71H198Zm-61.7,31.1H238.76v59.72H158.87l-22.59,16Z"/><rect x="205.8" y="366.38" width="13" height="12"/><rect x="180.8" y="366.38" width="13" height="12"/><rect x="155.8" y="366.38" width="13" height="12"/></g></svg>