<?xml version="1.0" encoding="utf-8"?>
<!-- Generator: Adobe Illustrator 24.3.0, SVG Export Plug-In . SVG Version: 6.00 Build 0)  -->
<svg version="1.1" id="Layer_1" xmlns="http://www.w3.org/2000/svg" xmlns:xlink="http://www.w3.org/1999/xlink" x="0px" y="0px"
	 viewBox="0 0 180 180" enable-background="new 0 0 180 180" xml:space="preserve">
<g>
	<g id="XMLID_208_">
		<path fill="#FF916E" d="M154.623,90.001c0,35.689-28.934,64.621-64.623,64.621c-35.689,0-64.623-28.932-64.623-64.621
			c0-35.691,28.934-64.623,64.623-64.623C125.689,25.378,154.623,54.31,154.623,90.001z"/>
	</g>
	<g opacity="0.5">
		<g>
			<g>
				<path fill="#FF916E" d="M69.924,122.153l-0.002-3.186h-1.51c-0.226-1.225-0.707-2.357-1.387-3.346l1.068-1.068l-2.256-2.254
					l-1.068,1.068c-0.774-0.533-1.647-0.945-2.578-1.207c-0.24-0.068-0.488-0.127-0.736-0.174c-0.01-0.002-0.023-0.002-0.033-0.004
					l0.004-1.512H58.24v1.512c-0.322,0.059-0.639,0.137-0.945,0.23c-0.867,0.262-1.676,0.654-2.402,1.156l-1.07-1.066l-2.252,2.252
					l1.068,1.066c-0.68,0.988-1.158,2.123-1.389,3.348l-1.508,0.002l0.002,3.186h1.508c0.229,1.225,0.705,2.359,1.389,3.348
					l-1.068,1.068l2.252,2.252l1.07-1.07c0.988,0.684,2.123,1.162,3.348,1.389v1.512l3.184-0.002v-1.51
					c0.324-0.061,0.639-0.137,0.947-0.229c0.865-0.264,1.672-0.658,2.402-1.16l1.068,1.07l2.252-2.256l-1.068-1.066
					c0.678-0.988,1.158-2.123,1.385-3.348L69.924,122.153z M59.832,127.21c-3.672,0-6.646-2.975-6.646-6.646
					c0-3.672,2.975-6.648,6.646-6.648c3.672,0,6.648,2.977,6.648,6.648C66.48,124.235,63.504,127.21,59.832,127.21z"/>
			</g>
		</g>
		<g>
			<g>
				<path fill="#FF916E" d="M104.213,132.319v-1.68h-0.795c-0.119-0.645-0.373-1.242-0.73-1.762l0.561-0.562l-1.186-1.187
					l-0.562,0.562c-0.41-0.281-0.869-0.498-1.359-0.637c-0.127-0.033-0.258-0.064-0.389-0.09c-0.004-0.002-0.01-0.002-0.016-0.004
					l0.002-0.795h-1.68v0.797c-0.17,0.031-0.336,0.072-0.498,0.121c-0.455,0.137-0.883,0.344-1.266,0.609l-0.562-0.562l-1.186,1.186
					l0.561,0.562c-0.358,0.52-0.609,1.119-0.729,1.764h-0.795v1.68h0.795c0.121,0.645,0.371,1.242,0.73,1.762l-0.562,0.562
					l1.186,1.188l0.564-0.562c0.521,0.357,1.119,0.611,1.764,0.729v0.797h1.678v-0.795c0.17-0.033,0.336-0.072,0.498-0.123
					c0.455-0.137,0.881-0.346,1.264-0.607l0.562,0.562l1.188-1.189l-0.562-0.562c0.358-0.52,0.611-1.117,0.73-1.762H104.213z
					 M98.898,134.981c-1.934,0-3.5-1.566-3.5-3.502c0-1.932,1.566-3.5,3.5-3.5c1.934,0,3.502,1.568,3.502,3.5
					C102.4,133.415,100.832,134.981,98.898,134.981z"/>
			</g>
		</g>
		<g>
			<path fill="#FF916E" d="M109.031,134.618c0.141,0.1,0.283,0.199,0.428,0.293c0.146,0.094,0.293,0.184,0.441,0.27l0.838-0.758
				c0.182,0.102,0.363,0.199,0.549,0.289l-0.144,1.121c0.314,0.143,0.633,0.273,0.955,0.391l0.684-0.896
				c0.197,0.064,0.395,0.125,0.592,0.182l0.064,1.125c0.336,0.084,0.67,0.156,1.01,0.211l0.51-1.01
				c0.205,0.029,0.408,0.053,0.613,0.07l0.27,1.096c0.346,0.02,0.689,0.029,1.033,0.023l0.314-1.09
				c0.205-0.008,0.412-0.023,0.615-0.045l0.469,1.027c0.342-0.043,0.682-0.1,1.021-0.168l0.107-1.125
				c0.199-0.047,0.4-0.098,0.6-0.158l0.646,0.928c0.328-0.105,0.654-0.227,0.973-0.355l-0.1-1.127
				c0.189-0.082,0.377-0.17,0.56-0.264l0.807,0.791c0.301-0.162,0.596-0.34,0.887-0.525l-0.303-1.086
				c0.17-0.117,0.338-0.238,0.5-0.365l0.939,0.629c0.266-0.217,0.525-0.443,0.777-0.682l-0.502-1.012
				c0.146-0.145,0.287-0.295,0.426-0.449l1.037,0.443c0.223-0.26,0.439-0.529,0.643-0.812l-0.68-0.904
				c0.059-0.086,0.115-0.17,0.172-0.256c0.057-0.088,0.109-0.174,0.164-0.262l1.104,0.246c0.172-0.301,0.33-0.609,0.477-0.918
				l-0.828-0.764c0.082-0.189,0.162-0.379,0.234-0.572l1.129,0.041c0.113-0.326,0.215-0.656,0.303-0.986l-0.959-0.6
				c0.049-0.201,0.092-0.404,0.129-0.608l1.113-0.168c0.051-0.34,0.094-0.682,0.117-1.025l-1.053-0.41
				c0.01-0.205,0.014-0.412,0.01-0.617l1.068-0.373c-0.012-0.346-0.033-0.689-0.074-1.031l-1.111-0.211
				c-0.025-0.203-0.061-0.408-0.102-0.611l0.98-0.559c-0.072-0.338-0.162-0.67-0.262-1.002l-1.131-0.006
				c-0.064-0.195-0.135-0.389-0.209-0.578l0.861-0.732c-0.133-0.318-0.285-0.627-0.441-0.934l-1.113,0.203
				c-0.1-0.18-0.203-0.357-0.314-0.531l0.715-0.879c-0.191-0.285-0.395-0.564-0.607-0.834l-1.055,0.402
				c-0.131-0.158-0.266-0.314-0.408-0.467l0.539-0.99c-0.24-0.246-0.49-0.484-0.75-0.713l-0.963,0.592
				c-0.158-0.131-0.32-0.258-0.488-0.381l0.348-1.074c-0.139-0.1-0.281-0.199-0.428-0.293c-0.145-0.094-0.295-0.182-0.441-0.27
				l-0.838,0.758c-0.18-0.102-0.363-0.199-0.547-0.289l0.145-1.121c-0.314-0.143-0.633-0.273-0.955-0.391l-0.684,0.896
				c-0.199-0.066-0.395-0.125-0.592-0.182l-0.064-1.125c-0.336-0.084-0.674-0.156-1.012-0.213l-0.51,1.012
				c-0.203-0.031-0.406-0.053-0.611-0.07l-0.271-1.094c-0.344-0.021-0.689-0.031-1.033-0.023l-0.312,1.086
				c-0.207,0.01-0.412,0.025-0.615,0.047l-0.471-1.029c-0.34,0.043-0.682,0.102-1.02,0.17l-0.109,1.125
				c-0.199,0.047-0.399,0.1-0.598,0.158l-0.648-0.928c-0.328,0.105-0.652,0.226-0.971,0.357l0.096,1.125
				c-0.188,0.082-0.375,0.168-0.557,0.262l-0.807-0.791c-0.303,0.162-0.6,0.342-0.889,0.527l0.305,1.086
				c-0.17,0.115-0.338,0.238-0.502,0.365l-0.938-0.629c-0.266,0.215-0.525,0.443-0.777,0.68l0.502,1.014
				c-0.148,0.145-0.289,0.295-0.428,0.449l-1.037-0.443c-0.221,0.262-0.438,0.529-0.641,0.811l0.678,0.908
				c-0.059,0.082-0.115,0.168-0.17,0.254c-0.057,0.086-0.109,0.174-0.164,0.264l-1.104-0.248c-0.176,0.301-0.33,0.607-0.48,0.916
				l0.832,0.764c-0.084,0.189-0.164,0.379-0.236,0.572l-1.129-0.039c-0.111,0.326-0.215,0.656-0.303,0.986l0.959,0.6
				c-0.049,0.201-0.09,0.404-0.127,0.605l-1.115,0.168c-0.051,0.342-0.092,0.684-0.115,1.025l1.053,0.414
				c-0.01,0.203-0.016,0.408-0.012,0.615l-1.066,0.373c0.012,0.346,0.033,0.689,0.072,1.031l1.111,0.211
				c0.027,0.203,0.061,0.408,0.102,0.609l-0.983,0.562c0.076,0.336,0.164,0.668,0.266,1l1.129,0.006
				c0.064,0.195,0.135,0.389,0.211,0.578l-0.863,0.733c0.133,0.318,0.285,0.627,0.443,0.934l1.111-0.203
				c0.1,0.182,0.205,0.357,0.316,0.531l-0.715,0.879c0.189,0.285,0.394,0.564,0.605,0.836l1.055-0.404
				c0.133,0.158,0.268,0.314,0.408,0.467l-0.539,0.99c0.24,0.246,0.492,0.484,0.75,0.711l0.965-0.59
				c0.156,0.131,0.32,0.258,0.486,0.381L109.031,134.618z M111.471,132.815l3.68-5.691c0.299,0.135,0.617,0.231,0.945,0.277
				c0.244,0.037,0.488,0.045,0.729,0.031l1.422,6.625C115.98,134.419,113.59,134.034,111.471,132.815z M119.32,133.827l-1.42-6.627
				c0.535-0.203,1.016-0.533,1.402-0.965l5.689,3.68C123.559,131.897,121.535,133.23,119.32,133.827z M125.59,128.993l-5.689-3.682
				c0.242-0.541,0.34-1.115,0.307-1.674l6.627-1.422C127.195,124.481,126.809,126.872,125.59,128.993z M126.604,121.14l-6.627,1.422
				c-0.201-0.531-0.529-1.016-0.967-1.404l3.682-5.689C124.672,116.901,126.004,118.925,126.604,121.14z M121.768,114.87
				l-3.682,5.693c-0.537-0.242-1.111-0.342-1.676-0.309l-1.42-6.627C117.254,113.267,119.646,113.651,121.768,114.87z
				 M113.914,113.858l1.422,6.627c-0.482,0.184-0.932,0.471-1.307,0.861c-0.033,0.033-0.066,0.068-0.098,0.104l-5.688-3.68
				C109.678,115.79,111.699,114.458,113.914,113.858z M107.645,118.694l5.687,3.68c-0.236,0.531-0.338,1.107-0.305,1.676
				l-6.625,1.422C106.043,123.206,106.428,120.815,107.645,118.694z M106.635,126.548l6.623-1.422
				c0.182,0.48,0.469,0.928,0.861,1.307c0.033,0.031,0.072,0.062,0.107,0.096l-3.682,5.689
				C108.564,130.784,107.232,128.761,106.635,126.548z"/>
		</g>
		<g>
			<path fill="#FF916E" d="M83.68,69.175c0.133,0.096,0.27,0.189,0.408,0.279c0.139,0.09,0.281,0.176,0.422,0.26l0.803-0.725
				c0.174,0.098,0.348,0.189,0.524,0.275l-0.139,1.072c0.301,0.137,0.605,0.262,0.914,0.373l0.654-0.857
				c0.188,0.062,0.377,0.121,0.566,0.174l0.061,1.076c0.32,0.08,0.643,0.148,0.967,0.203l0.488-0.967
				c0.195,0.029,0.389,0.049,0.584,0.066l0.26,1.049c0.33,0.02,0.66,0.027,0.988,0.021l0.301-1.041
				c0.195-0.008,0.393-0.021,0.588-0.043l0.447,0.984c0.328-0.043,0.652-0.098,0.977-0.164l0.104-1.074
				c0.191-0.045,0.383-0.094,0.574-0.15l0.619,0.885c0.313-0.1,0.621-0.215,0.928-0.34l-0.092-1.076
				c0.18-0.08,0.358-0.162,0.533-0.252l0.771,0.756c0.289-0.154,0.57-0.324,0.848-0.502l-0.289-1.039
				c0.162-0.111,0.322-0.229,0.479-0.35l0.898,0.602c0.254-0.207,0.502-0.424,0.742-0.652l-0.479-0.969
				c0.141-0.137,0.275-0.281,0.406-0.428l0.994,0.424c0.211-0.25,0.416-0.508,0.611-0.777l-0.648-0.865
				c0.057-0.082,0.111-0.162,0.164-0.246c0.055-0.082,0.107-0.166,0.158-0.248l1.055,0.236c0.166-0.289,0.316-0.582,0.457-0.879
				l-0.793-0.73c0.08-0.18,0.154-0.363,0.223-0.547l1.08,0.039c0.109-0.312,0.207-0.627,0.291-0.945l-0.916-0.572
				c0.047-0.191,0.084-0.387,0.119-0.58l1.068-0.16c0.049-0.328,0.09-0.654,0.111-0.98l-1.006-0.395
				c0.008-0.197,0.012-0.393,0.01-0.59l1.02-0.357c-0.012-0.33-0.033-0.658-0.07-0.986l-1.062-0.201
				c-0.025-0.195-0.061-0.391-0.098-0.584l0.939-0.535c-0.072-0.322-0.154-0.641-0.252-0.957l-1.08-0.006
				c-0.062-0.188-0.131-0.371-0.203-0.555l0.826-0.699c-0.127-0.305-0.273-0.6-0.426-0.893l-1.061,0.193
				c-0.096-0.172-0.197-0.342-0.301-0.508l0.682-0.84c-0.182-0.273-0.377-0.541-0.58-0.799l-1.008,0.385
				c-0.127-0.15-0.256-0.301-0.391-0.445l0.514-0.947c-0.229-0.236-0.467-0.463-0.717-0.682l-0.92,0.566
				c-0.15-0.127-0.307-0.246-0.467-0.365l0.332-1.027c-0.135-0.094-0.27-0.189-0.408-0.279c-0.141-0.09-0.283-0.174-0.424-0.258
				l-0.801,0.723c-0.172-0.096-0.346-0.189-0.523-0.275l0.139-1.07c-0.301-0.139-0.607-0.264-0.914-0.373l-0.654,0.855
				c-0.188-0.062-0.375-0.121-0.564-0.174l-0.062-1.076c-0.32-0.08-0.643-0.148-0.967-0.203l-0.486,0.967
				c-0.195-0.029-0.393-0.049-0.588-0.066l-0.258-1.049c-0.33-0.02-0.66-0.027-0.988-0.021l-0.301,1.041
				c-0.195,0.008-0.393,0.023-0.588,0.043l-0.447-0.982c-0.328,0.041-0.654,0.096-0.979,0.162l-0.102,1.074
				c-0.191,0.045-0.383,0.096-0.572,0.152l-0.621-0.887c-0.314,0.1-0.623,0.215-0.93,0.34l0.094,1.076
				c-0.18,0.08-0.359,0.162-0.533,0.252l-0.771-0.756c-0.289,0.154-0.572,0.324-0.85,0.504l0.291,1.039
				c-0.162,0.109-0.322,0.227-0.48,0.348l-0.898-0.602c-0.254,0.207-0.5,0.426-0.742,0.652l0.479,0.969
				c-0.139,0.137-0.273,0.281-0.406,0.428l-0.992-0.424c-0.213,0.25-0.418,0.508-0.611,0.777l0.646,0.865
				c-0.055,0.082-0.109,0.162-0.164,0.246c-0.053,0.082-0.105,0.166-0.154,0.25l-1.057-0.236c-0.166,0.287-0.316,0.582-0.457,0.877
				l0.793,0.733c-0.08,0.18-0.154,0.361-0.223,0.545l-1.08-0.039c-0.109,0.314-0.207,0.629-0.291,0.945l0.916,0.572
				c-0.045,0.193-0.086,0.387-0.121,0.58l-1.066,0.162c-0.049,0.324-0.088,0.652-0.111,0.98l1.008,0.393
				c-0.012,0.197-0.014,0.395-0.012,0.59l-1.02,0.357c0.01,0.33,0.031,0.658,0.07,0.984l1.061,0.203
				c0.027,0.195,0.061,0.391,0.098,0.584l-0.938,0.535c0.07,0.322,0.154,0.641,0.252,0.957l1.082,0.006
				c0.061,0.188,0.127,0.373,0.199,0.555l-0.824,0.699c0.127,0.305,0.271,0.602,0.424,0.893l1.062-0.193
				c0.096,0.172,0.195,0.342,0.301,0.51l-0.682,0.84c0.182,0.271,0.377,0.539,0.58,0.797l1.008-0.385
				c0.127,0.15,0.256,0.301,0.391,0.445l-0.516,0.949c0.23,0.234,0.469,0.461,0.717,0.68l0.922-0.566
				c0.15,0.127,0.307,0.248,0.467,0.365L83.68,69.175z M86.01,67.45l3.521-5.441c0.287,0.127,0.59,0.219,0.904,0.264
				c0.234,0.035,0.467,0.043,0.697,0.029l1.357,6.338C90.326,68.985,88.039,68.618,86.01,67.45z M93.521,68.419l-1.359-6.338
				c0.51-0.195,0.971-0.51,1.34-0.924l5.443,3.521C97.572,66.573,95.637,67.845,93.521,68.419z M99.518,63.794l-5.443-3.52
				c0.232-0.518,0.326-1.066,0.295-1.602l6.336-1.359C101.051,59.48,100.682,61.767,99.518,63.794z M100.486,56.284l-6.338,1.359
				c-0.193-0.508-0.508-0.971-0.926-1.342l3.52-5.441C98.637,52.231,99.912,54.165,100.486,56.284z M95.859,50.288l-3.521,5.443
				c-0.514-0.229-1.061-0.324-1.6-0.293l-1.359-6.34C91.545,48.753,93.832,49.122,95.859,50.288z M88.35,49.319l1.357,6.338
				c-0.461,0.178-0.891,0.451-1.248,0.824c-0.031,0.033-0.064,0.066-0.094,0.1l-5.439-3.52C84.295,51.167,86.23,49.892,88.35,49.319
				z M82.354,53.946l5.439,3.517c-0.227,0.51-0.324,1.059-0.293,1.604l-6.334,1.359C80.82,58.261,81.187,55.974,82.354,53.946z
				 M81.387,61.456l6.334-1.357c0.174,0.457,0.449,0.885,0.824,1.246c0.033,0.031,0.068,0.062,0.104,0.092l-3.521,5.443
				C83.232,65.507,81.959,63.573,81.387,61.456z"/>
		</g>
	</g>
	<g>
		<g>
			<g>
				<path fill="#FFFFFF" d="M44.285,113.274v2.188c0,1.207,0.957,2.188,2.137,2.188h83.855c1.18,0,2.137-0.98,2.137-2.188v-2.188
					H44.285z"/>
			</g>
			<g>
				<path fill="#333333" d="M128.338,113.274V67.011c0-2.572-2.039-4.658-4.553-4.658H52.914c-2.514,0-4.551,2.086-4.551,4.658
					v46.264H128.338z"/>
			</g>
			<g>
				<rect x="52.334" y="66.767" fill="#FFFFFF" width="72.031" height="42.932"/>
			</g>
			<g>
				<path fill="#FFFFFF" d="M89.525,64.581c0,0.664-0.527,1.201-1.176,1.201c-0.648,0-1.174-0.537-1.174-1.201
					c0-0.664,0.525-1.203,1.174-1.203C88.998,63.378,89.525,63.917,89.525,64.581z"/>
			</g>
			<g>
				<rect x="52.334" y="66.767" fill="#BAC0C4" width="72.031" height="3.603"/>
			</g>
			<g>
				<path fill="#FF916E" d="M55.771,68.569c0,0.543-0.43,0.986-0.963,0.986c-0.531,0-0.963-0.443-0.963-0.986
					c0-0.545,0.432-0.986,0.963-0.986C55.342,67.583,55.771,68.024,55.771,68.569z"/>
			</g>
			<g>
				<path fill="#FFDB76" d="M59.115,68.569c0,0.543-0.434,0.986-0.965,0.986c-0.533,0-0.963-0.443-0.963-0.986
					c0-0.545,0.43-0.986,0.963-0.986C58.682,67.583,59.115,68.024,59.115,68.569z"/>
			</g>
			<g>
				<path fill="#ADEBF6" d="M62.455,68.569c0,0.543-0.432,0.986-0.963,0.986c-0.533,0-0.965-0.443-0.965-0.986
					c0-0.545,0.432-0.986,0.965-0.986C62.023,67.583,62.455,68.024,62.455,68.569z"/>
			</g>
			<g>
				<path fill="#333333" d="M122.055,68.569l0.697-0.715c0.102-0.104,0.102-0.271,0-0.375c-0.102-0.104-0.264-0.104-0.365,0
					l-0.699,0.715l-0.697-0.715c-0.1-0.104-0.264-0.104-0.365,0c-0.1,0.104-0.1,0.271,0,0.375l0.699,0.715l-0.699,0.713
					c-0.1,0.105-0.1,0.271,0,0.375c0.102,0.104,0.266,0.104,0.365,0l0.697-0.715l0.699,0.715c0.102,0.104,0.264,0.104,0.365,0
					c0.102-0.104,0.102-0.27,0-0.375L122.055,68.569z"/>
			</g>
		</g>
		<g id="XMLID_206_">
			<path fill="#323136" d="M59.459,92.8l3.928-0.383c0.238,1.318,0.719,2.287,1.441,2.906c0.721,0.619,1.697,0.928,2.924,0.928
				c1.301,0,2.281-0.275,2.941-0.826c0.658-0.549,0.988-1.193,0.988-1.93c0-0.473-0.139-0.875-0.416-1.207
				c-0.277-0.332-0.762-0.621-1.453-0.865c-0.473-0.164-1.551-0.455-3.232-0.875c-2.164-0.535-3.684-1.195-4.555-1.977
				c-1.23-1.102-1.844-2.441-1.844-4.023c0-1.02,0.289-1.973,0.867-2.857c0.576-0.887,1.408-1.564,2.496-2.027
				c1.086-0.463,2.398-0.695,3.936-0.695c2.51,0,4.398,0.551,5.668,1.65c1.268,1.102,1.934,2.57,1.998,4.406l-4.039,0.178
				c-0.172-1.027-0.543-1.768-1.111-2.217c-0.568-0.451-1.42-0.676-2.557-0.676c-1.174,0-2.092,0.24-2.756,0.723
				c-0.428,0.311-0.641,0.725-0.641,1.242c0,0.473,0.199,0.877,0.6,1.215c0.51,0.426,1.746,0.871,3.711,1.336
				c1.965,0.465,3.416,0.943,4.359,1.439c0.939,0.494,1.676,1.172,2.207,2.033c0.533,0.857,0.799,1.92,0.799,3.184
				c0,1.146-0.318,2.219-0.955,3.219c-0.637,1.002-1.535,1.744-2.701,2.23c-1.162,0.486-2.613,0.73-4.35,0.73
				c-2.529,0-4.471-0.584-5.826-1.754C60.531,96.739,59.723,95.036,59.459,92.8z"/>
			<path fill="#323136" d="M79.115,99.306V79.31h14.828v3.383H83.152v4.432h10.041v3.371H83.152v5.441h11.172v3.369H79.115z"/>
		</g>
		<g>
			<g>
				<g>
					<path fill="#FFFFFF" d="M115.92,89.501c-0.154-4.574-3.984-8.158-8.561-8.02c-0.008,0-0.02,0-0.029,0
						c-4.588,0.156-8.18,3.998-8.027,8.582c0.156,4.584,4.002,8.174,8.59,8.018c0.01,0,0.019,0,0.029,0
						C112.496,97.909,116.074,94.075,115.92,89.501z"/>
				</g>
				<g>
					<polygon fill="#333333" points="107.785,94.005 107.785,94.007 107.785,94.005 					"/>
				</g>
				<g>
					<g>
						<path fill="#ADEBF6" d="M115.275,86.509l-0.436,0.021l-0.225-0.23l-0.055-0.383l-0.221,0.131l-0.102,0.473l-0.334-0.332
							l-0.023-0.322l-0.32-0.256l-0.117-0.111l-0.361,0.014l0.125,0.314l0.443,0.229l0.078,0.076l-0.094,0.051l0.012,0.254
							l-0.207,0.096l-0.182-0.033l-0.117-0.156l0.293,0.006l0.074-0.109l-0.664-0.416l-0.055-0.186l-0.256,0.248l-0.27-0.047
							l-0.389,0.543l-0.072,0.211l-0.26,0.031l-0.387,0.016l-0.232-0.1l-0.084-0.455l0.076-0.221l0.389-0.1l0.432,0.072l0.043-0.238
							l-0.184-0.037l0.049-0.371l0.428-0.08l0.287-0.436l0.309-0.062l0.283,0.031l0.102-0.004l-0.07-0.396l-0.334,0.148
							l-0.131-0.293l-0.197-0.021l-0.045-0.203l0.154-0.182l0.379-0.162l0.092-0.18c-1.504-1.238-3.445-1.959-5.541-1.893
							c-0.004,0-0.012,0-0.02,0c-1.822,0.062-3.492,0.711-4.83,1.76l0.42-0.02l0.189,0.098l0.354,0.064l0.035,0.137l0.559,0.002
							l-0.082-0.178l-0.496,0.004l0.111-0.115l-0.045-0.131l-0.449,0.016l0.477-0.383l0.471-0.016l0.232,0.297l0.367,0.01
							l0.213-0.223l0.17,0.076l-0.295,0.309c0,0-0.42,0.021-0.4,0.02c0.02,0,0.045,0.291,0.045,0.291l0.51-0.033l0.051-0.139
							l0.352-0.033l0.035-0.209l-0.209-0.029l0.064-0.188l0.156-0.053l0.555,0.008l-0.297,0.287l0.057,0.213l0.318,0.037
							l-0.031-0.387l0.297-0.168l0.537-0.08l0.631,0.254l0.162,0.065l0.01,0.297l0.25,0.053l-0.117,0.24l-0.281,0.01l-0.068,0.002
							l-0.098,0.274l-0.811-0.162l0.621-0.359l-0.248-0.197l-0.545,0.088l-0.045,0.051l-0.002-0.002l-0.008,0.014l-0.15,0.168
							l-0.26,0.029l0.025,0.131l0.092,0.033l-0.002,0.045l-0.213,0.035l-0.01,0.125l-0.203,0.018l-0.043-0.244l-0.359,0.123
							l-0.727,0.459l0.094,0.303l0.211,0.127l0.418,0.045l0.016,0.471l0.191-0.037l0.162-0.375l0.438-0.154l-0.02-0.564l0.238-0.193
							l0.596,0.119l-0.027,0.375l0.158-0.004l0.428-0.23l0.037,0.49l0.15,0.082l0.174,0.1l-0.002,0.293l-0.158,0.059l0.008,0.201
							l0.244,0.104v0.199l-0.104,0.014c-0.002-0.004-0.002-0.006-0.002-0.006L107.5,85.63l-0.336-0.092l-0.025-0.148l0,0
							l0.131-0.098l-0.004-0.135l-0.146-0.031l-0.031,0.127l-0.254,0.047l-0.025-0.008v0.014l-0.088,0.016l-0.078-0.143
							l-0.084-0.033l-0.182,0.006l-0.078,0.07l0.004,0.15l0.158,0.047l0.152,0.016l-0.033,0.016l-0.135,0.16l-0.064-0.074
							l-0.137-0.031l-0.355,0.359l0.049,0.037l-0.533,0.318l-0.494,0.551l-0.027,0.238l-0.5,0.354l-0.246,0.264l0.047,0.512
							l-0.359-0.154l-0.008-0.299l-0.98,0.035l-0.498,0.273l-0.209,0.414l-0.076,0.326l0.154,0.307l0.4,0.035l0.623-0.447
							l0.062,0.211l-0.18,0.371l0.484,0.066l0.074,0.746l0.668,0.09l0.404-0.5l0.514,0.086l0.189,0.244l0.49-0.045l0.008-0.146
							l0.275,0.123l0.318,0.467l0.525-0.012l0.205,0.332l0.043,0.414l0.377,0.129l0.211,0.072l0.732-0.018l0.225,0.344l0.33,0.094
							l-0.053,0.291l-0.34,0.467l-0.072,1.004l-0.311,0.264l-0.476,0.002l-0.15,0.281v0.002l0.135,0.512l-0.113,0.156l-0.383,0.525
							l-0.156,0.311l-0.484,0.254l-0.324,0.061l-0.01,0.139l0.23,0.057l-0.021,0.15l-0.197,0.203l0.129,0.152l0.246-0.002
							l-0.008,0.191l-0.059,0.189l-0.018,0.152l0.375,0.293l-0.043,0.162l-0.494,0.006l-0.508-0.414l-0.406-0.66l0.031-0.652
							l-0.303-0.377l0.094-0.66l-0.174-0.043l-0.047-1.424c0,0-0.498-0.35-0.523-0.35c-0.027,0.002-0.258-0.053-0.258-0.053
							l-0.059-0.268l-0.654-0.768l0.053-0.285l0.004-0.463l0.424-0.318l-0.078-0.518l-0.639-0.025l-0.516-0.551l-0.355-0.084
							l-0.23-0.035l0.021-0.209l-0.291-0.029l0.004,0.117l-0.732-0.156l-0.307-0.436l0.111-0.221l-0.482-0.656l-0.096-0.486
							l-0.186,0.006l0.076,0.475l0.336,0.48l-0.027,0.195l-0.271-0.033l-0.352-0.555l-0.021-0.658l-0.352-0.154l-0.016-0.473
							c-0.393,1.014-0.592,2.123-0.553,3.277c0.154,4.584,4.012,8.188,8.596,8.033c0.006,0,0.014,0,0.018,0
							c2.594-0.094,4.869-1.371,6.328-3.291l-0.275,0.008l-0.018-0.553l-0.332-0.416l-0.021-0.664l-0.252-0.234l-0.031-0.275
							l0.289-0.598l-0.619-1.01l0.045-0.701l-0.525-0.037l-0.201-0.186l-0.354,0.01l-0.172,0.174l-0.623,0.02l-0.018,0.057
							l-0.346,0.012l-0.824-0.879l-0.02-0.705l0.131-0.053l0.039-0.271l-0.186,0.008l-0.088-0.281l0.898-0.693l-0.016-0.471
							l0.441-0.266l0.182,0.014l0.369-0.014l0.285-0.166l0.93-0.104l0.018,0.477l0.742,0.162l0.148,0.098l0.135-0.004l-0.01-0.26
							l0.424-0.055l0.416,0.287l0.662-0.023l0.045-0.045C115.447,86.938,115.365,86.722,115.275,86.509z M111.266,84.274
							l0.074-0.119l0.27-0.064l0.082,0.33l0.152,0.229l0.102,0.109l0.178,0.061l-0.16,0.205l-0.32,0.041l-0.242,0.008l0.02-0.287
							l0.199-0.049l-0.023-0.135l-0.189-0.111l-0.137-0.084L111.266,84.274z M110.836,84.81l0.156-0.273l0.223-0.059l0.162,0.065
							l-0.01,0.18l-0.332,0.254l-0.193,0.006L110.836,84.81z M106.508,85.776l0.238-0.008l0.047-0.129l0.094-0.006l0.109,0.021
							l-0.043,0.096l-0.119,0.016l-0.019,0.113l-0.09,0.061l-0.145,0.018c-0.006-0.033-0.01-0.061-0.01-0.061l-0.059,0.002
							L106.508,85.776z M106.18,86.005l0.004-0.121l0.076-0.098l0.105,0.078l-0.014,0.121L106.18,86.005z"/>
					</g>
				</g>
			</g>
			<g>
				<path fill="#333333" d="M107.613,102.54c-3.412,0-6.617-1.328-9.029-3.738c-2.41-2.412-3.738-5.617-3.738-9.027
					c0-3.412,1.328-6.617,3.738-9.029c2.412-2.41,5.617-3.738,9.029-3.738c3.408,0,6.613,1.328,9.025,3.738
					c2.412,2.412,3.74,5.617,3.74,9.029c0,3.41-1.328,6.615-3.74,9.027C114.227,101.212,111.021,102.54,107.613,102.54z
					 M107.613,80.464c-2.488,0-4.826,0.969-6.586,2.727c-1.758,1.76-2.725,4.096-2.725,6.584c0,2.486,0.967,4.824,2.725,6.582
					c1.76,1.76,4.098,2.729,6.586,2.729c2.486,0,4.822-0.969,6.582-2.729c1.758-1.758,2.727-4.096,2.727-6.582
					c0-2.488-0.969-4.824-2.727-6.584C112.436,81.433,110.1,80.464,107.613,80.464z"/>
			</g>
			<g opacity="0.4">
				<path fill="#CCCBC9" d="M114.076,83.31c3.57,3.57,3.57,9.358,0,12.928s-9.359,3.57-12.93,0c-3.568-3.57-3.568-9.357,0-12.928
					C104.717,79.739,110.506,79.739,114.076,83.31z"/>
			</g>
			<g opacity="0.2">
				<path fill="#333333" d="M106.855,80.665c2.082,0.17,4.117,1.053,5.709,2.645c3.57,3.57,3.57,9.358,0,12.928
					c-1.592,1.594-3.627,2.475-5.709,2.645c2.586,0.213,5.242-0.666,7.221-2.645c3.57-3.57,3.57-9.357,0-12.928
					C112.098,81.331,109.441,80.452,106.855,80.665z"/>
			</g>
			<g>
				<path fill="#FFFFFF" d="M101.123,88.329c-0.072,0-0.148-0.01-0.223-0.031c-0.406-0.123-0.635-0.553-0.514-0.959
					c0.074-0.244,0.16-0.488,0.256-0.729c0.666-1.645,1.807-3.016,3.301-3.963c0.359-0.227,0.832-0.121,1.061,0.238
					c0.227,0.357,0.121,0.832-0.236,1.059c-1.223,0.775-2.156,1.896-2.699,3.242c-0.08,0.197-0.15,0.397-0.211,0.598
					C101.758,88.116,101.451,88.329,101.123,88.329z"/>
			</g>
			<g>
				<path fill="#FFFFFF" d="M102.111,94.837c-0.246,0-0.488-0.119-0.637-0.34c-0.697-1.031-1.162-2.225-1.35-3.455
					c-0.064-0.418,0.223-0.811,0.641-0.875c0.42-0.062,0.812,0.225,0.877,0.644c0.154,1.006,0.535,1.984,1.105,2.828
					c0.236,0.352,0.145,0.83-0.209,1.066C102.408,94.796,102.258,94.837,102.111,94.837z"/>
			</g>
			<g>
				
					<rect x="121.602" y="94.302" transform="matrix(0.7071 -0.7071 0.7071 0.7071 -38.4721 118.1051)" fill="#333333" width="3.456" height="22.382"/>
			</g>
		</g>
	</g>
	<g>
		<g>
			<path fill="#333333" d="M79.334,132.106h-9.41c-0.213,0-0.385-0.174-0.385-0.385c0-0.213,0.172-0.385,0.385-0.385h9.41
				c0.211,0,0.385,0.172,0.385,0.385C79.719,131.933,79.545,132.106,79.334,132.106z"/>
		</g>
		<g>
			<path fill="#333333" d="M78.805,129.181h-1.521c-0.211,0-0.383-0.172-0.383-0.383c0-0.213,0.172-0.385,0.383-0.385h1.521
				c0.211,0,0.383,0.172,0.383,0.385C79.187,129.009,79.016,129.181,78.805,129.181z"/>
		</g>
		<g>
			<path fill="#333333" d="M87.33,129.181H81.6c-0.211,0-0.383-0.172-0.383-0.383c0-0.213,0.172-0.385,0.383-0.385h5.73
				c0.213,0,0.385,0.172,0.385,0.385C87.715,129.009,87.543,129.181,87.33,129.181z"/>
		</g>
		<g>
			<path fill="#333333" d="M81.504,124.62h-6.918c-0.213,0-0.385-0.172-0.385-0.383c0-0.213,0.172-0.385,0.385-0.385h6.918
				c0.211,0,0.383,0.172,0.383,0.385C81.887,124.448,81.715,124.62,81.504,124.62z"/>
		</g>
	</g>
	<g>
		<g>
			<path fill="#333333" d="M118.65,57.077h-9.41c-0.213,0-0.385-0.172-0.385-0.385c0-0.213,0.172-0.383,0.385-0.383h9.41
				c0.213,0,0.385,0.17,0.385,0.383C119.035,56.905,118.863,57.077,118.65,57.077z"/>
		</g>
		<g>
			<path fill="#333333" d="M118.121,54.153h-1.519c-0.213,0-0.385-0.172-0.385-0.385c0-0.211,0.172-0.385,0.385-0.385h1.519
				c0.211,0,0.385,0.174,0.385,0.385C118.506,53.981,118.332,54.153,118.121,54.153z"/>
		</g>
		<g>
			<path fill="#333333" d="M126.648,54.153h-5.731c-0.213,0-0.385-0.172-0.385-0.385c0-0.211,0.172-0.385,0.385-0.385h5.731
				c0.211,0,0.385,0.174,0.385,0.385C127.033,53.981,126.859,54.153,126.648,54.153z"/>
		</g>
		<g>
			<path fill="#333333" d="M120.82,49.593h-6.918c-0.213,0-0.385-0.172-0.385-0.385c0-0.211,0.172-0.383,0.385-0.383h6.918
				c0.213,0,0.383,0.172,0.383,0.383C121.203,49.421,121.033,49.593,120.82,49.593z"/>
		</g>
	</g>
	<g>
		<g>
			<path fill="#333333" d="M43.424,97.79h-1.52c-0.213,0-0.385-0.172-0.385-0.383c0-0.213,0.172-0.385,0.385-0.385h1.52
				c0.211,0,0.385,0.172,0.385,0.385C43.809,97.618,43.635,97.79,43.424,97.79z"/>
		</g>
		<g>
			<path fill="#333333" d="M39.107,97.79h-5.73c-0.213,0-0.385-0.172-0.385-0.383c0-0.213,0.172-0.385,0.385-0.385h5.73
				c0.213,0,0.383,0.172,0.383,0.385C39.49,97.618,39.32,97.79,39.107,97.79z"/>
		</g>
		<g>
			<path fill="#333333" d="M46.123,102.351h-6.918c-0.213,0-0.385-0.172-0.385-0.383c0-0.213,0.172-0.385,0.385-0.385h6.918
				c0.213,0,0.385,0.172,0.385,0.385C46.508,102.179,46.336,102.351,46.123,102.351z"/>
		</g>
	</g>
	<g>
		<g>
			<path fill="#333333" d="M134.48,85.024h-1.521c-0.211,0-0.385-0.172-0.385-0.383c0-0.213,0.174-0.385,0.385-0.385h1.521
				c0.211,0,0.385,0.172,0.385,0.385C134.865,84.853,134.691,85.024,134.48,85.024z"/>
		</g>
		<g>
			<path fill="#333333" d="M143.006,85.024h-5.73c-0.213,0-0.383-0.172-0.383-0.383c0-0.213,0.17-0.385,0.383-0.385h5.73
				c0.213,0,0.385,0.172,0.385,0.385C143.391,84.853,143.219,85.024,143.006,85.024z"/>
		</g>
		<g>
			<path fill="#333333" d="M137.178,80.466h-6.918c-0.213,0-0.383-0.174-0.383-0.385c0-0.213,0.17-0.383,0.383-0.383h6.918
				c0.213,0,0.385,0.17,0.385,0.383C137.562,80.292,137.391,80.466,137.178,80.466z"/>
		</g>
	</g>
	<g>
		<g>
			<path fill="#333333" d="M61.404,56.915h-1.52c-0.211,0-0.385-0.172-0.385-0.383c0-0.213,0.174-0.385,0.385-0.385h1.52
				c0.213,0,0.385,0.172,0.385,0.385C61.789,56.743,61.617,56.915,61.404,56.915z"/>
		</g>
		<g>
			<path fill="#333333" d="M69.932,56.915h-5.729c-0.213,0-0.385-0.172-0.385-0.383c0-0.213,0.172-0.385,0.385-0.385h5.729
				c0.213,0,0.385,0.172,0.385,0.385C70.316,56.743,70.145,56.915,69.932,56.915z"/>
		</g>
		<g>
			<path fill="#333333" d="M64.105,52.355h-6.918c-0.215,0-0.385-0.17-0.385-0.383c0-0.213,0.17-0.385,0.385-0.385h6.918
				c0.211,0,0.383,0.172,0.383,0.385C64.488,52.185,64.316,52.355,64.105,52.355z"/>
		</g>
	</g>
	<g id="XMLID_192_">
		<g id="XMLID_200_">
			<g id="XMLID_202_">
				<path fill="#D3D3D3" d="M33.822,89.841h11.738c0.586-0.436,0.967-1.133,0.967-1.92c0-1.322-1.072-2.396-2.395-2.396
					c-0.365,0-0.711,0.084-1.02,0.229c-0.467-1.352-1.748-2.322-3.256-2.322c-1.695,0-3.105,1.229-3.389,2.844
					c-0.361-0.252-0.799-0.402-1.273-0.402c-1.227,0-2.223,0.996-2.223,2.223C32.973,88.804,33.307,89.435,33.822,89.841z"/>
			</g>
		</g>
		<g id="XMLID_193_">
			<g id="XMLID_198_">
				<path fill="#FFFFFF" d="M38.799,88.3h11.738c0.586-0.438,0.967-1.133,0.967-1.918c0-1.324-1.074-2.396-2.396-2.396
					c-0.365,0-0.709,0.082-1.018,0.227c-0.465-1.352-1.746-2.322-3.256-2.322c-1.697,0-3.105,1.229-3.389,2.844
					c-0.361-0.252-0.801-0.402-1.275-0.402c-1.227,0-2.223,0.996-2.223,2.223C37.947,87.263,38.283,87.894,38.799,88.3z"/>
			</g>
		</g>
	</g>
	<g id="XMLID_177_">
		<g id="XMLID_190_">
			<g id="XMLID_191_">
				<path fill="#D3D3D3" d="M123.592,100.296h10.824c0.539-0.402,0.891-1.045,0.891-1.771c0-1.219-0.988-2.209-2.209-2.209
					c-0.336,0-0.654,0.076-0.94,0.211c-0.428-1.246-1.609-2.141-3.002-2.141c-1.564,0-2.863,1.131-3.125,2.621
					c-0.334-0.234-0.736-0.371-1.176-0.371c-1.131,0-2.049,0.918-2.049,2.051C122.807,99.341,123.115,99.921,123.592,100.296z"/>
			</g>
		</g>
		<g id="XMLID_178_">
			<g id="XMLID_188_">
				<path fill="#FFFFFF" d="M128.18,98.876h10.824c0.541-0.404,0.893-1.045,0.893-1.771c0-1.221-0.99-2.209-2.209-2.209
					c-0.336,0-0.654,0.076-0.941,0.209c-0.428-1.244-1.609-2.141-3-2.141c-1.566,0-2.863,1.133-3.127,2.623
					c-0.332-0.234-0.736-0.371-1.174-0.371c-1.133,0-2.051,0.918-2.051,2.049C127.395,97.919,127.703,98.501,128.18,98.876z"/>
			</g>
		</g>
	</g>
</g>
</svg>
