<?xml version="1.0" encoding="utf-8"?>
<!-- Generator: Adobe Illustrator 19.1.0, SVG Export Plug-In . SVG Version: 6.00 Build 0)  -->
<svg version="1.1" xmlns="http://www.w3.org/2000/svg" xmlns:xlink="http://www.w3.org/1999/xlink" x="0px" y="0px"
	 viewBox="0 0 270.6 270.6" enable-background="new 0 0 270.6 270.6" xml:space="preserve">
<g id="KEY_ACCOUNT_MANAGEMENT">
</g>
<g id="TIME_MANAGEMENT">
</g>
<g id="SOCIAL_NETWORK">
</g>
<g id="SOCIAL_MEDIA">
	<rect fill="#5EB4E7" width="270.6" height="270.6"/>
	<g>
		<circle fill="#2E95D1" cx="198.8" cy="98.1" r="28.9"/>
		<g>
			<g>
				<path fill="#282D33" d="M206.7,111.1c-3.9,0-7.1-3.2-7.1-7.1V81h4v22.9c0,1.7,1.4,3.1,3.1,3.1s3.1-1.4,3.1-3.1h4
					C213.8,107.9,210.6,111.1,206.7,111.1z"/>
			</g>
			<g>
				<rect x="195.7" y="90.3" fill="#282D33" width="13.3" height="4"/>
			</g>
		</g>
		<g>
			<g>
				<path fill="#282D33" d="M104.9,122.9l-13.4-12.1H57.9V76.3H113v34.5h-8.1V122.9z M61.9,106.8h31.2l7.8,7.1v-7.1h8.1V80.3H61.9
					V106.8z"/>
			</g>
			<g>
				<rect x="69.9" y="87.9" fill="#282D33" width="31.1" height="4"/>
			</g>
			<g>
				<rect x="69.9" y="95.7" fill="#282D33" width="31.1" height="4"/>
			</g>
		</g>
		<polygon fill="#FFFFFF" points="188.6,99.2 143.1,99.2 143.1,119.6 151.2,119.6 151.2,129.2 161.8,119.6 188.6,119.6 		"/>
		<g>
			<rect x="150.8" y="107.7" fill="#282D33" width="31.1" height="4"/>
		</g>
		<g>
			<g>
				<path fill="#282D33" d="M196.4,186.9c-12.1,0-21.9-9.8-21.9-21.9c0-12.1,9.8-21.9,21.9-21.9s21.9,9.8,21.9,21.9
					C218.3,177.1,208.5,186.9,196.4,186.9z M196.4,147.1c-9.9,0-17.9,8-17.9,17.9c0,9.9,8,17.9,17.9,17.9s17.9-8,17.9-17.9
					C214.3,155.1,206.3,147.1,196.4,147.1z"/>
			</g>
			<polygon fill="#FFFFFF" points="205.3,165 198.5,168.9 191.6,172.9 191.6,165 191.6,157.1 198.5,161 			"/>
		</g>
		<g>
			<g>
				<path fill="#282D33" d="M143.9,193.3h-25.6c-5.2,0-9.9-2.2-13.2-6.2h-6.8v-4h8.7l0.6,0.8c2.5,3.4,6.4,5.4,10.7,5.4l31.7,0
					c2.7,0,4.9-2.2,4.9-4.9s-2.2-4.9-4.9-4.9v-4h5.6c2.7,0,4.9-2.2,4.9-4.9c0-2.7-2.2-4.9-4.9-4.9v-4h1.9c2.7,0,4.9-2.2,4.9-4.9
					c0-2.7-2.2-4.9-4.9-4.9v-4h3.7c2.7,0,4.9-2.2,4.9-4.9c0-2.7-2.2-4.9-4.9-4.9h-19.4c-0.3,0-0.5,0-0.8,0.1l-0.3,0h-10.4l3.1-10.9
					v-9.5c0-3.7-3-6.7-6.7-6.7h-1.3v12l-3.9,5.5l-12.6,13.8c-1.6,1.7-2.7,3.8-3.3,6l-0.4,1.5h-6.7v-4h3.6c0.8-2.3,2.1-4.5,3.8-6.3
					l12.5-13.7l2.9-4.1v-14.6l1.9-0.1c0.2,0,0.3,0,0.4,0h2.9c5.9,0,10.7,4.8,10.7,10.7v10.1l-1.8,6.4h5c0.5-0.1,0.9-0.1,1.3-0.1
					h19.4c4.9,0,8.9,4,8.9,8.9c0,3.8-2.3,7-5.7,8.3c1.2,1.5,2,3.5,2,5.6c0,3.3-1.8,6.1-4.4,7.7c1.6,1.6,2.5,3.8,2.5,6.2
					c0,4.3-3.1,7.9-7.2,8.8c1,1.5,1.6,3.2,1.6,5.1c0,4.9-4,8.9-8.9,8.9L143.9,193.3z"/>
			</g>
			<rect x="66.1" y="144.7" fill="#2E95D1" width="29" height="54.6"/>
			<g>
				<rect x="85.1" y="189.9" fill="#FFFFFF" width="3.6" height="3"/>
			</g>
		</g>
		<g>
			<g>
				<path fill="#282D33" d="M48.7,151.6c-3.8,0-6.8-3.1-6.8-6.8c0-3.8,3.1-6.8,6.8-6.8c3.8,0,6.8,3.1,6.8,6.8
					C55.5,148.5,52.5,151.6,48.7,151.6z M48.7,141.9c-1.6,0-2.8,1.3-2.8,2.8c0,1.6,1.3,2.8,2.8,2.8c1.6,0,2.8-1.3,2.8-2.8
					C51.5,143.2,50.3,141.9,48.7,141.9z"/>
			</g>
			<g>
				<g>
					<path fill="#282D33" d="M75.5,137.2c-3.8,0-6.8-3.1-6.8-6.8c0-3.8,3.1-6.8,6.8-6.8c3.8,0,6.8,3.1,6.8,6.8
						C82.3,134.1,79.2,137.2,75.5,137.2z M75.5,127.5c-1.6,0-2.8,1.3-2.8,2.8c0,1.6,1.3,2.8,2.8,2.8c1.6,0,2.8-1.3,2.8-2.8
						C78.3,128.8,77,127.5,75.5,127.5z"/>
				</g>
				<g>
					<path fill="#282D33" d="M75.5,165.9c-3.8,0-6.8-3.1-6.8-6.8c0-3.8,3.1-6.8,6.8-6.8c3.8,0,6.8,3.1,6.8,6.8
						C82.3,162.9,79.2,165.9,75.5,165.9z M75.5,156.3c-1.6,0-2.8,1.3-2.8,2.8s1.3,2.8,2.8,2.8c1.6,0,2.8-1.3,2.8-2.8
						S77,156.3,75.5,156.3z"/>
				</g>
			</g>
			<g>
				<g>
					<rect x="52" y="149.6" transform="matrix(0.866 0.5 -0.5 0.866 84.0943 -10.6442)" fill="#282D33" width="19.8" height="4"/>
				</g>
				<g>
					
						<rect x="59.9" y="128" transform="matrix(0.4999 0.8661 -0.8661 0.4999 150.3696 15.3321)" fill="#282D33" width="4" height="19.8"/>
				</g>
			</g>
		</g>
		<g>
			<g>
				<path fill="#282D33" d="M188.8,89.3h-51.7V45.6h51.7V89.3z M141.1,85.3h43.7V49.6h-43.7V85.3z"/>
			</g>
			<g>
				<polygon fill="#282D33" points="186.2,82.8 175,73.2 164.1,80.5 150.1,65.4 140.5,75.3 137.7,72.5 150.1,59.6 164.7,75.3 
					175.4,68.2 188.8,79.8 				"/>
			</g>
			<path fill="#FFFFFF" d="M171.2,59.3c0,3.1-2.5,5.7-5.7,5.7c-3.1,0-5.7-2.5-5.7-5.7c0-3.1,2.5-5.7,5.7-5.7
				C168.7,53.6,171.2,56.1,171.2,59.3z"/>
		</g>
	</g>
</g>
<g id="REFERRAL_MARKETING">
</g>
<g id="SEARCH_ANALYTICS">
</g>
<g id="STARTUP">
</g>
<g id="SEARCH_ENGINE_MARKETING">
</g>
<g id="MARKETING_STRATEGY">
</g>
<g id="MARKETING_PLAN">
</g>
<g id="MARKET_RESEARCH">
</g>
<g id="STATISTICS">
</g>
<g id="INTERNET_MARKETING">
</g>
<g id="MOBILE_MARKETING">
</g>
<g id="VIDEO_ADVERTISING">
</g>
<g id="EMAIL_MARKETING">
</g>
</svg>
